#N canvas 638 131 577 455 10;
#N canvas 0 22 454 304 gemwin 0;
#X obj 132 136 gemwin;
#X obj 67 89 outlet;
#X obj 67 10 inlet;
#X obj 67 41 route create;
#X msg 67 70 set destroy;
#X msg 182 68 set create;
#X msg 132 112 create \, 1;
#X msg 238 112 destroy;
#N canvas 87 154 247 179 Gem.init 0;
#X obj 32 42 loadbang;
#X msg 32 77 reset;
#X obj 32 109 outlet;
#X msg 189 76 lighting 0;
#X msg 76 81 dimen 800 600;
#X connect 0 0 1 0;
#X connect 0 0 4 0;
#X connect 0 0 3 0;
#X connect 1 0 2 0;
#X connect 3 0 2 0;
#X connect 4 0 2 0;
#X restore 289 80 pd Gem.init;
#X connect 2 0 3 0;
#X connect 3 0 4 0;
#X connect 3 0 6 0;
#X connect 3 1 5 0;
#X connect 3 1 7 0;
#X connect 4 0 1 0;
#X connect 5 0 1 0;
#X connect 6 0 0 0;
#X connect 7 0 0 0;
#X connect 8 0 0 0;
#X restore 446 127 pd gemwin;
#X msg 446 103 create;
#X obj 54 158 mapforma;
#X obj 54 69 gemhead;
#X obj 54 98 pix_video;
#X obj 54 128 pix_texture;
#X connect 0 0 1 0;
#X connect 1 0 0 0;
#X connect 3 0 4 0;
#X connect 4 0 5 0;
#X connect 5 0 2 0;
