#N canvas 101 20 936 584 10;
#X msg 277 377 bang;
#X msg 381 288 bang;
#X obj -81 -10 inlet;
#X msg 278 289 bang;
#X msg 488 287 bang;
#X obj 124 -10 gemhead;
#X obj -81 103 spigot;
#X obj 124 418 spigot;
#X obj -48 40 expr !$f1;
#X obj -48 62 tgl 15 0 empty empty empty 17 7 0 10 -262144 -1 -1 1
1;
#X msg -80 485 draw fill;
#X msg -80 503 grid 40 40;
#X obj -80 467 loadbang;
#X msg 252 8 0;
#X obj 252 -10 loadbang;
#X floatatom 21 250 5 0 0 0 - #0-rX -;
#X floatatom 54 250 5 0 0 0 - #0-rY -;
#X floatatom 87 250 5 0 0 0 - #0-rZ -;
#X floatatom 20 197 5 0 0 0 - #0-tX -;
#X floatatom 53 197 5 0 0 0 - #0-tY -;
#X floatatom 86 197 5 0 0 0 - #0-tZ -;
#X obj -81 266 rotateXYZ 0 0 0;
#X obj -81 213 translateXYZ 0 0 0;
#X obj -81 162 scale;
#X floatatom 21 146 5 0 0 0 - #0-sX -;
#X obj 157 390 tgl 15 0 empty \$0-plano empty 17 7 0 10 -262144 -1
-1 0 1;
#X obj 124 266 rotateXYZ 0 0 0;
#X obj 124 213 translateXYZ 0 0 0;
#X obj 124 162 scale;
#X msg 252 77 0;
#X msg 252 44 1;
#X obj 235 29 bng 15 250 50 0 empty \$0-reset empty 17 7 0 10 -262144
-1 -1;
#X floatatom 243 354 5 0 0 0 - #0-10x -;
#X floatatom 277 354 5 0 0 0 - #0-10y -;
#X floatatom 243 266 5 0 0 0 - #0-00x -;
#X floatatom 278 266 5 0 0 0 - #0-00y -;
#X floatatom 348 266 5 0 0 0 - #0-01x -;
#X floatatom 381 266 5 0 0 0 - #0-01y -;
#X floatatom 454 266 5 0 0 0 - #0-02x -;
#X floatatom 488 266 5 0 0 0 - #0-02y -;
#X obj 243 306 pack f f f;
#X msg 312 289 bang;
#X floatatom 312 266 5 0 0 0 - #0-00z -;
#X msg 243 329 set 0 0 \$1 \$2 \$3;
#X obj 124 520 curve3d 3 3;
#X msg 382 377 bang;
#X floatatom 348 354 5 0 0 0 - #0-11x -;
#X floatatom 382 354 5 0 0 0 - #0-11y -;
#X msg 489 377 bang;
#X floatatom 455 355 5 0 0 0 - #0-12x -;
#X floatatom 489 355 5 0 0 0 - #0-12y -;
#X msg 490 460 bang;
#X floatatom 456 439 5 0 0 0 - #0-22x -;
#X floatatom 490 439 5 0 0 0 - #0-22y -;
#X msg 277 461 bang;
#X floatatom 243 439 5 0 0 0 - #0-20x -;
#X floatatom 277 439 5 0 0 0 - #0-20y -;
#X msg 383 461 bang;
#X floatatom 349 439 5 0 0 0 - #0-21x -;
#X floatatom 383 439 5 0 0 0 - #0-21y -;
#X floatatom 310 354 5 0 0 0 - #0-10z -;
#X obj 243 394 pack f f f;
#X obj 348 305 pack f f f;
#X obj 454 304 pack f f f;
#X obj 348 394 pack f f f;
#X obj 455 394 pack f f f;
#X obj 456 477 pack f f f;
#X obj 349 478 pack f f f;
#X obj 243 478 pack f f f;
#X msg 310 377 bang;
#X floatatom 414 266 5 0 0 0 - #0-01z -;
#X msg 414 288 bang;
#X floatatom 521 266 5 0 0 0 - #0-02z -;
#X msg 521 287 bang;
#X floatatom 415 354 5 0 0 0 - #0-11z -;
#X msg 415 377 bang;
#X floatatom 522 354 5 0 0 0 - #0-12z -;
#X msg 522 377 bang;
#X floatatom 523 439 5 0 0 0 - #0-22z -;
#X msg 523 460 bang;
#X floatatom 310 439 5 0 0 0 - #0-20z -;
#X msg 310 461 bang;
#X floatatom 416 439 5 0 0 0 - #0-21z -;
#X msg 416 461 bang;
#X msg 348 329 set 0 1 \$1 \$2 \$3;
#X msg 348 419 set 1 1 \$1 \$2 \$3;
#X msg 454 329 set 0 2 \$1 \$2 \$3;
#X msg 455 419 set 1 2 \$1 \$2 \$3;
#X msg 456 503 set 2 2 \$1 \$2 \$3;
#X msg 349 503 set 2 1 \$1 \$2 \$3;
#X msg 243 503 set 2 0 \$1 \$2 \$3;
#X msg 243 419 set 1 0 \$1 \$2 \$3;
#X obj 350 10 cnv 15 450 200 empty empty empty 20 12 0 14 -191407 -66577
0;
#X obj 376 25 tgl 15 0 \$0-plano empty Forma -6 -6 0 10 -232576 -1
-1 0 1;
#X obj 380 94 hsl 128 10 -5 5 0 0 \$0-tX empty Posición -2 -8 0 10
-261682 -1 -1 6350 1;
#X obj 380 108 hsl 128 10 -5 5 0 0 \$0-tY empty empty -2 -8 0 10 -261682
-1 -1 6350 1;
#X obj 380 122 hsl 128 10 -5 5 0 0 \$0-tZ empty empty -2 -8 0 10 -261682
-1 -1 6350 1;
#X obj 380 157 hsl 128 10 0 360 0 0 \$0-rX empty Rotación -2 -8 0
10 -203904 -1 -1 0 1;
#X obj 380 171 hsl 128 10 0 360 0 0 \$0-rY empty empty -2 -8 0 10 -203904
-1 -1 0 1;
#X obj 380 185 hsl 128 10 0 360 0 0 \$0-rZ empty empty -2 -8 0 10 -203904
-1 -1 0 1;
#X text 363 89 X;
#X text 363 152 X;
#X text 363 103 Y;
#X text 363 117 Z;
#X text 363 166 Y;
#X text 363 179 Z;
#X obj 380 61 hsl 128 10 0 50 0 0 \$0-sX empty Escala -2 -8 0 10 -262130
-1 -1 254 1;
#X obj 421 25 bng 15 250 50 0 \$0-reset empty empty 17 7 0 10 -228856
-1 -1;
#X text 412 10 Reset;
#X obj 536 19 cnv 15 240 180 empty empty empty 20 12 0 14 -162280 -66577
0;
#X obj 554 147 nbx 5 14 -1e+037 1e+037 0 0 \$0-00x empty X -8 7 0 10
-203904 -1 -4160 0 256;
#X obj 554 161 nbx 5 14 -1e+037 1e+037 0 0 \$0-00y empty Y -8 7 0 10
-204786 -1 -4034 0 256;
#X obj 554 175 nbx 5 14 -1e+037 1e+037 0 0 \$0-00z empty Z -8 7 0 10
-261234 -1 -258113 0 256;
#X obj 634 88 nbx 5 14 -1e+037 1e+037 0 0 \$0-11x empty X -8 7 0 10
-203904 -1 -4160 0 256;
#X obj 634 102 nbx 5 14 -1e+037 1e+037 0 0 \$0-11y empty Y -8 7 0 10
-204786 -1 -4034 0 256;
#X obj 634 116 nbx 5 14 -1e+037 1e+037 0 0 \$0-11z empty Z -8 7 0 10
-261234 -1 -258113 0 256;
#X obj 634 147 nbx 5 14 -1e+037 1e+037 0 0 \$0-01x empty X -8 7 0 10
-203904 -1 -4160 0 256;
#X obj 634 161 nbx 5 14 -1e+037 1e+037 0 0 \$0-01y empty Y -8 7 0 10
-204786 -1 -4034 0 256;
#X obj 634 175 nbx 5 14 -1e+037 1e+037 0 0 \$0-01z empty Z -8 7 0 10
-261234 -1 -258113 0 256;
#X obj 713 147 nbx 5 14 -1e+037 1e+037 0 0 \$0-02x empty X -8 7 0 10
-203904 -1 -4160 0 256;
#X obj 713 161 nbx 5 14 -1e+037 1e+037 0 0 \$0-02y empty Y -8 7 0 10
-204786 -1 -4034 0 256;
#X obj 713 175 nbx 5 14 -1e+037 1e+037 0 0 \$0-02z empty Z -8 7 0 10
-261234 -1 -258113 0 256;
#X obj 554 30 nbx 5 14 -1e+037 1e+037 0 0 \$0-20x empty X -8 7 0 10
-203904 -1 -4160 0 256;
#X obj 554 44 nbx 5 14 -1e+037 1e+037 0 0 \$0-20y empty Y -8 7 0 10
-204786 -1 -4034 0 256;
#X obj 554 58 nbx 5 14 -1e+037 1e+037 0 0 \$0-20z empty Z -8 7 0 10
-261234 -1 -258113 0 256;
#X obj 634 30 nbx 5 14 -1e+037 1e+037 0 0 \$0-21x empty X -8 7 0 10
-203904 -1 -4160 0 256;
#X obj 634 44 nbx 5 14 -1e+037 1e+037 0 0 \$0-21y empty Y -8 7 0 10
-204786 -1 -4034 0 256;
#X obj 634 58 nbx 5 14 -1e+037 1e+037 0 0 \$0-21z empty Z -8 7 0 10
-261234 -1 -258113 0 256;
#X obj 713 30 nbx 5 14 -1e+037 1e+037 0 0 \$0-22x empty X -8 7 0 10
-203904 -1 -4160 0 256;
#X obj 713 44 nbx 5 14 -1e+037 1e+037 0 0 \$0-22y empty Y -8 7 0 10
-204786 -1 -4034 0 256;
#X obj 713 58 nbx 5 14 -1e+037 1e+037 0 0 \$0-22z empty Z -8 7 0 10
-261234 -1 -258113 0 256;
#X obj 554 88 nbx 5 14 -1e+037 1e+037 0 0 \$0-10x empty X -8 7 0 10
-203904 -1 -4160 0 256;
#X obj 554 102 nbx 5 14 -1e+037 1e+037 0 0 \$0-10y empty Y -8 7 0 10
-204786 -1 -4034 0 256;
#X obj 554 116 nbx 5 14 -1e+037 1e+037 0 0 \$0-10z empty Z -8 7 0 10
-261234 -1 -258113 0 256;
#X obj 713 88 nbx 5 14 -1e+037 1e+037 0 0 \$0-12x empty X -8 7 0 10
-203904 -1 -4160 0 256;
#X obj 713 102 nbx 5 14 -1e+037 1e+037 0 0 \$0-12y empty Y -8 7 0 10
-204786 -1 -4034 0 256;
#X obj 713 116 nbx 5 14 -1e+037 1e+037 0 0 \$0-12z empty Z -8 7 0 10
-261234 -1 -258113 0 256;
#X obj 124 543 outlet;
#X connect 0 0 61 0;
#X connect 1 0 62 0;
#X connect 2 0 6 0;
#X connect 3 0 40 0;
#X connect 4 0 63 0;
#X connect 5 0 28 0;
#X connect 6 0 23 0;
#X connect 7 0 44 0;
#X connect 8 0 9 0;
#X connect 9 0 6 1;
#X connect 10 0 44 0;
#X connect 11 0 44 0;
#X connect 12 0 10 0;
#X connect 12 0 11 0;
#X connect 13 0 93 0;
#X connect 14 0 13 0;
#X connect 14 0 29 0;
#X connect 14 0 30 0;
#X connect 15 0 21 1;
#X connect 15 0 26 1;
#X connect 16 0 21 2;
#X connect 16 0 26 2;
#X connect 17 0 21 3;
#X connect 17 0 26 3;
#X connect 18 0 22 1;
#X connect 18 0 27 1;
#X connect 19 0 22 2;
#X connect 19 0 27 2;
#X connect 20 0 22 3;
#X connect 20 0 27 3;
#X connect 21 0 44 0;
#X connect 22 0 21 0;
#X connect 23 0 22 0;
#X connect 24 0 23 1;
#X connect 24 0 28 1;
#X connect 25 0 7 1;
#X connect 26 0 7 0;
#X connect 27 0 26 0;
#X connect 28 0 27 0;
#X connect 29 0 94 0;
#X connect 29 0 95 0;
#X connect 29 0 96 0;
#X connect 29 0 97 0;
#X connect 29 0 98 0;
#X connect 29 0 99 0;
#X connect 30 0 106 0;
#X connect 31 0 30 0;
#X connect 31 0 29 0;
#X connect 32 0 61 0;
#X connect 33 0 0 0;
#X connect 33 0 61 1;
#X connect 34 0 40 0;
#X connect 35 0 3 0;
#X connect 35 0 40 1;
#X connect 36 0 62 0;
#X connect 37 0 1 0;
#X connect 37 0 62 1;
#X connect 38 0 63 0;
#X connect 39 0 4 0;
#X connect 39 0 63 1;
#X connect 40 0 43 0;
#X connect 41 0 40 0;
#X connect 42 0 41 0;
#X connect 42 0 40 2;
#X connect 43 0 44 0;
#X connect 44 0 137 0;
#X connect 45 0 64 0;
#X connect 46 0 64 0;
#X connect 47 0 45 0;
#X connect 47 0 64 1;
#X connect 48 0 65 0;
#X connect 49 0 65 0;
#X connect 50 0 48 0;
#X connect 50 0 65 1;
#X connect 51 0 66 0;
#X connect 52 0 66 0;
#X connect 53 0 51 0;
#X connect 53 0 66 1;
#X connect 54 0 68 0;
#X connect 55 0 68 0;
#X connect 56 0 54 0;
#X connect 56 0 68 1;
#X connect 57 0 67 0;
#X connect 58 0 67 0;
#X connect 59 0 57 0;
#X connect 59 0 67 1;
#X connect 60 0 69 0;
#X connect 60 0 61 2;
#X connect 61 0 91 0;
#X connect 62 0 84 0;
#X connect 63 0 86 0;
#X connect 64 0 85 0;
#X connect 65 0 87 0;
#X connect 66 0 88 0;
#X connect 67 0 89 0;
#X connect 68 0 90 0;
#X connect 69 0 61 0;
#X connect 70 0 71 0;
#X connect 70 0 62 2;
#X connect 71 0 62 0;
#X connect 72 0 73 0;
#X connect 72 0 63 2;
#X connect 73 0 63 0;
#X connect 74 0 75 0;
#X connect 74 0 64 2;
#X connect 75 0 64 0;
#X connect 76 0 77 0;
#X connect 76 0 65 2;
#X connect 77 0 65 0;
#X connect 78 0 79 0;
#X connect 78 0 66 2;
#X connect 79 0 66 0;
#X connect 80 0 81 0;
#X connect 80 0 68 2;
#X connect 81 0 68 0;
#X connect 82 0 83 0;
#X connect 82 0 67 2;
#X connect 83 0 67 0;
#X connect 84 0 44 0;
#X connect 85 0 44 0;
#X connect 86 0 44 0;
#X connect 87 0 44 0;
#X connect 88 0 44 0;
#X connect 89 0 44 0;
#X connect 90 0 44 0;
#X connect 91 0 44 0;
#X connect 93 0 8 0;
#X coords 0 -1 1 1 450 200 2 350 10;
